<svg width="17" height="17" viewBox="0 0 17 17" fill="none" xmlns="http://www.w3.org/2000/svg">
<g clip-path="url(#clip0_3_138976)">
<path d="M15.5846 8.49996H13.828C13.5184 8.4993 13.2171 8.60005 12.9703 8.78681C12.7234 8.97357 12.5445 9.23606 12.4609 9.53413L10.7963 15.4558C10.7856 15.4926 10.7632 15.5249 10.7326 15.5479C10.7019 15.5709 10.6646 15.5833 10.6263 15.5833C10.588 15.5833 10.5507 15.5709 10.5201 15.5479C10.4894 15.5249 10.467 15.4926 10.4563 15.4558L6.5463 1.54413C6.53557 1.50734 6.5132 1.47503 6.48255 1.45204C6.4519 1.42905 6.41462 1.41663 6.3763 1.41663C6.33799 1.41663 6.3007 1.42905 6.27005 1.45204C6.2394 1.47503 6.21703 1.50734 6.2063 1.54413L4.54172 7.46579C4.45846 7.76269 4.28061 8.02432 4.03516 8.21097C3.78971 8.39761 3.49007 8.49908 3.18172 8.49996H1.41797" stroke="#6B7280" stroke-width="1.41667" stroke-linecap="round" stroke-linejoin="round"/>
</g>
<defs>
<clipPath id="clip0_3_138976">
<rect width="17" height="17" fill="white"/>
</clipPath>
</defs>
</svg>
